<svg xmlns="http://www.w3.org/2000/svg" width="136.764" height="85.925" viewBox="0 0 136.764 85.925">
  <g id="Group_9259" data-name="Group 9259" transform="translate(-2114.155 -521)">
    <g id="Group_9255" data-name="Group 9255" transform="translate(2114.422 521)">
      <path id="Path_9536" data-name="Path 9536" d="M162.03,19.621H192.1l.012.019,33.909-29.72,33.89,29.688v.012h.012l.017.016.01-.016h30.065V47.281h4.255V15.367H262.622L225.805-17.507l-.009.011-.024-.026L189.436,15.357l.006.01H157.775V47.281h4.255Z" transform="translate(-157.775 17.522)" fill="#f7cd37"/>
    </g>
    <g id="Group_9258" data-name="Group 9258" transform="translate(2114.155 568.661)">
      <path id="Path_9660" data-name="Path 9660" d="M-70.568-25.84h-6.556A2.054,2.054,0,0,0-79.241-23.6a2.054,2.054,0,0,0-2.117-2.245h-8.188V-8.494h3.265V-22.575h4.464a.942.942,0,0,1,.944.944V-8.494h3.265V-22.575h4.464a.942.942,0,0,1,.944.944V-8.494h3.265V-24.207A1.644,1.644,0,0,0-70.568-25.84Zm14.234,0H-66.64V-8.494h3.265V-15h5.408v6.5H-54.7V-24.207A1.644,1.644,0,0,0-56.334-25.84Zm-1.633,7.6h-5.408v-4.337h4.464a.942.942,0,0,1,.944.944Zm16.147-7.6H-52.661v3.265h3.775V-8.494h3.265V-22.575h3.8Zm13.979,4.872v-3.24a1.644,1.644,0,0,0-1.633-1.633H-39.779v15.714a1.628,1.628,0,0,0,1.633,1.633h10.306v-4.872h-3.265v1.633H-35.57a.969.969,0,0,1-.969-.969v-2.831h4.9V-18.8h-4.9v-3.775h4.464a.947.947,0,0,1,.969.944v.663Zm12.831,4.337a2.277,2.277,0,0,0-1.607-.536,2.05,2.05,0,0,0,2.245-1.99v-5.076h0v-.051a.094.094,0,0,0-.026-.077v-.026h0v-.128a.089.089,0,0,1-.026-.051v-.026h0v-.051h-.026c0-.051,0-.077-.026-.1h0v-.026c0-.026-.026-.051-.026-.077h0a.025.025,0,0,0-.026-.026h0c0-.026,0-.051-.026-.051,0-.026-.026-.051-.026-.077l-.026-.026v-.026h-.026V-25.1h-.026v-.026a.025.025,0,0,1-.026-.026v-.026H-14.7V-25.2c-.026,0-.026-.026-.051-.051l-.026-.026h0l-.026-.026a.025.025,0,0,0-.026-.026l-.026-.026v-.026h-.026a.025.025,0,0,0-.026-.026.025.025,0,0,0-.026-.026.025.025,0,0,0-.026-.026l-.026-.026c-.026,0-.026,0-.026-.026-.026,0-.026,0-.051-.026l-.026-.026c-.026,0-.026-.026-.051-.026l-.026-.026c-.026,0-.051-.026-.077-.026a.025.025,0,0,0-.026-.026h0a.079.079,0,0,0-.051-.026c-.026,0-.026,0-.051-.026h-.026a.094.094,0,0,0-.077-.026.025.025,0,0,0-.026-.026h-.051c-.026-.026-.026-.026-.051-.026h-.051c0-.026-.026-.026-.051-.026h-.077c-.026,0-.051-.026-.077-.026H-26.31V-8.494h3.342v-7.04h3.7A1.656,1.656,0,0,1-18.045-15a1.614,1.614,0,0,1,.408,1.1v5.408h3.265v-6.581A2.307,2.307,0,0,0-15.01-16.631Zm-2.627-3.775a1.6,1.6,0,0,1-.408,1.071,1.656,1.656,0,0,1-1.224.536h-3.7v-3.775h4.388a.942.942,0,0,1,.944.944ZM-9.066-8.494h-3.265V-25.84h3.265ZM3.535-25.84H-6.77V-8.494h3.265V-15H1.9v6.5H5.168V-24.207A1.644,1.644,0,0,0,3.535-25.84ZM1.9-18.238H-3.505v-4.337H.959a.942.942,0,0,1,.944.944Zm15.331,8.086v-1.582h-6.5V-25.84H7.464V-8.494h9.77v-1.658ZM30.677-24.233v-.23h0v-.051h-.026v-.1h0v-.051a.025.025,0,0,1-.026-.026v-.051h0a.193.193,0,0,1-.026-.1,1.842,1.842,0,0,0-.357-.663l-.026-.026h0l-.051-.051h0c-.026-.026-.051-.026-.077-.051l-.077-.077h0c-.026,0-.051-.026-.077-.026h0v-.026a.094.094,0,0,1-.077-.026h-.051a.153.153,0,0,0-.1-.026.025.025,0,0,0-.026-.026.025.025,0,0,1,.026.026.025.025,0,0,0-.026-.026H18.764v.918h0v8.01h0l.026.026v.026h0v.051c0,.026,0,.026.026.051h0v.077a.025.025,0,0,1,.026.026h0v.026a1.668,1.668,0,0,0,.561.765h.026v.026a.094.094,0,0,0,.077.026v.026h0c.026.026.077.026.1.051a.2.2,0,0,0,.128.051v.026h0c.026,0,.077.026.1.026h.026a.094.094,0,0,0,.077.026l.026.026h.077a.191.191,0,0,0,.128.026h.051a.153.153,0,0,0,.1.026h7.117v.612h0v3.189H22v-1.633h-3.24v3.495h0v.051h0a.094.094,0,0,1,.026.077v.026h0v.051a.025.025,0,0,0,.026.026v.077a1.7,1.7,0,0,0,.383.74V-8.8h.026l.051.051h0l.051.051a.352.352,0,0,1,.1.077h0c.026,0,.051.026.077.026h0v.026a.094.094,0,0,1,.077.026h.026c.026,0,.026,0,.026.026h.1c0,.026,0,.026.026.026H30.677v-8.928h0L30.6-17.7a1.87,1.87,0,0,0-.561-.765h-.026a.025.025,0,0,0-.026-.026.089.089,0,0,0-.051-.026v-.026h0a.193.193,0,0,1-.1-.051c-.051-.026-.077-.051-.128-.051v-.026h0c-.051,0-.077-.026-.1-.026H29.58a.094.094,0,0,0-.077-.026.025.025,0,0,1-.026-.026H29.4a.191.191,0,0,0-.128-.026h-.051a.153.153,0,0,0-.1-.026H22v-3.775h5.433v1.607h3.24v-3.265Z" transform="translate(97.786 25.84)" fill="#f7cd37"/>
      <path id="Path_9659" data-name="Path 9659" d="M-91.515-25.84h-10.306v15.714a1.644,1.644,0,0,0,1.633,1.633h10.306V-24.207A1.644,1.644,0,0,0-91.515-25.84Zm-1.633,14.106h-4.464a.947.947,0,0,1-.944-.969v-9.872h4.464a.942.942,0,0,1,.944.944ZM-76.159-25.84h-10.28V-8.494h3.24V-22.575h4.464a.947.947,0,0,1,.969.944V-8.494h3.24V-24.207A1.628,1.628,0,0,0-76.159-25.84Zm26.274,6.5h0v-5.153a.025.025,0,0,1-.026-.026v-.077a.025.025,0,0,0-.026-.026v-.051c0-.026-.026-.026-.026-.051v-.051h0c-.026-.026-.026-.051-.051-.077v-.026h0V-24.9a.025.025,0,0,1-.026-.026.025.025,0,0,0-.026-.026.133.133,0,0,0-.051-.1h0a.557.557,0,0,0-.077-.128V-25.2c-.026-.026-.051-.051-.077-.051,0-.026,0-.026-.026-.026,0-.026-.026-.051-.051-.077h0l-.026-.026-.051-.051a.025.025,0,0,1-.026-.026c-.026,0-.026-.026-.051-.026a.025.025,0,0,0-.026-.026c-.026-.026-.051-.026-.077-.051l-.026-.026a.089.089,0,0,0-.051-.026l-.026-.026h-.026l-.026-.026h-.026l-.026-.026h-.026l-.026-.026h-.026a.025.025,0,0,1-.026-.026h-.051l-.026-.026h-.051c-.026,0-.026-.026-.051-.026h0c-.051,0-.1-.026-.153-.026h-.026c-.026,0-.051,0-.051-.026H-61.8V-8.494h10.484a.089.089,0,0,1,.051-.026h.026a.324.324,0,0,0,.153-.026h0c.026,0,.026-.026.051-.026h.051l.026-.026h.051a.025.025,0,0,1,.026-.026h.026a.025.025,0,0,0,.026-.026h.051c0-.026,0-.026.026-.026h.026c0-.026,0-.026.026-.026h0l.026-.026a.089.089,0,0,0,.051-.026.025.025,0,0,0,.026-.026c.026,0,.051-.026.077-.051a.025.025,0,0,0,.026-.026c.026,0,.026-.026.051-.026A.025.025,0,0,1-50.42-8.9l.051-.051.026-.026h0c.026-.026.051-.051.051-.077h.026l.077-.077v-.026a.557.557,0,0,0,.077-.128h0a.133.133,0,0,0,.051-.1c.026,0,.026,0,.026-.026a.025.025,0,0,1,.026-.026v-.026h0v-.026c.026-.026.026-.051.051-.077h0v-.051c0-.026.026-.026.026-.051v-.026c0-.026.026-.026.026-.051V-9.82a.025.025,0,0,1,.026-.026v-9.489Zm-3.24,6.632a1.023,1.023,0,0,1-.077.383,2.128,2.128,0,0,1-.2.306c-.026.026-.077.051-.1.077a.534.534,0,0,1-.153.1h0c-.051,0-.077.026-.1.026h0a.089.089,0,0,1-.051.026.917.917,0,0,1-.281.051h-4.464V-22.575h4.464a.957.957,0,0,1,.281.026.089.089,0,0,1,.051.026h0c.026,0,.051.026.1.026h0c.051.026.1.077.153.1.026.026.077.051.1.1a1.133,1.133,0,0,1,.2.281,1.024,1.024,0,0,1,.077.383ZM-34.5-20.968v-3.24a1.644,1.644,0,0,0-1.633-1.633H-46.441v15.714a1.628,1.628,0,0,0,1.633,1.633H-34.5v-4.872h-3.265v1.633h-4.464A.969.969,0,0,1-43.2-12.7v-2.831h4.9V-18.8h-4.9v-3.775h4.464a.947.947,0,0,1,.969.944v.663Zm21.657-4.872H-19.4A2.054,2.054,0,0,0-21.519-23.6a2.054,2.054,0,0,0-2.117-2.245h-8.188V-8.494h3.265V-22.575H-24.1a.942.942,0,0,1,.944.944V-8.494h3.265V-22.575h4.464a.942.942,0,0,1,.944.944V-8.494h3.265V-24.207A1.644,1.644,0,0,0-12.846-25.84Zm15.382,0H-7.769V-8.494H-4.5V-15H.9v6.5H4.169V-24.207A1.644,1.644,0,0,0,2.536-25.84ZM.9-18.238H-4.5v-4.337H-.04a.942.942,0,0,1,.944.944Zm16.989-7.6H7.612V-8.494h3.24V-22.575h4.464a.947.947,0,0,1,.969.944V-8.494h3.24V-24.207A1.628,1.628,0,0,0,17.893-25.84Zm16.989,6.5h0v-5.153a.025.025,0,0,1-.026-.026v-.077a.025.025,0,0,0-.026-.026v-.051c0-.026-.026-.026-.026-.051v-.051h0c-.026-.026-.026-.051-.051-.077v-.026h0V-24.9a.025.025,0,0,1-.026-.026.025.025,0,0,0-.026-.026.133.133,0,0,0-.051-.1h0a.557.557,0,0,0-.077-.128V-25.2c-.026-.026-.051-.051-.077-.051,0-.026,0-.026-.026-.026,0-.026-.026-.051-.051-.077h0l-.026-.026-.051-.051a.025.025,0,0,1-.026-.026c-.026,0-.026-.026-.051-.026a.025.025,0,0,0-.026-.026c-.025-.026-.051-.026-.077-.051l-.026-.026a.089.089,0,0,0-.051-.026l-.026-.026H34.04l-.026-.026h-.025l-.026-.026h-.026l-.026-.026h-.026a.025.025,0,0,1-.026-.026H33.81l-.026-.026h-.051c-.026,0-.026-.026-.051-.026h0c-.051,0-.1-.026-.153-.026H33.5c-.025,0-.051,0-.051-.026H22.969V-8.494H33.453a.089.089,0,0,1,.051-.026h.026a.324.324,0,0,0,.153-.026h0c.026,0,.026-.026.051-.026h.051L33.81-8.6h.051a.025.025,0,0,1,.026-.026h.026a.025.025,0,0,0,.026-.026h.051c0-.026,0-.026.025-.026h.026c0-.026,0-.026.026-.026h0l.026-.026a.089.089,0,0,0,.051-.026.025.025,0,0,0,.026-.026c.026,0,.051-.026.077-.051a.025.025,0,0,0,.026-.026c.026,0,.026-.026.051-.026a.025.025,0,0,1,.026-.026l.051-.051.026-.026h0c.025-.026.051-.051.051-.077H34.5l.077-.077v-.026a.557.557,0,0,0,.077-.128h0a.133.133,0,0,0,.051-.1c.026,0,.026,0,.026-.026a.025.025,0,0,1,.026-.026v-.026h0v-.026c.026-.026.026-.051.051-.077h0v-.051c0-.026.026-.026.026-.051v-.026c0-.026.026-.026.026-.051V-9.82a.025.025,0,0,1,.026-.026v-9.489ZM31.642-12.7a1.024,1.024,0,0,1-.077.383,2.127,2.127,0,0,1-.2.306c-.026.026-.077.051-.1.077a.534.534,0,0,1-.153.1h0c-.051,0-.077.026-.1.026h0a.089.089,0,0,1-.051.026.917.917,0,0,1-.281.051H26.209V-22.575h4.464a.957.957,0,0,1,.281.026.089.089,0,0,1,.051.026h0c.026,0,.051.026.1.026h0c.051.026.1.077.153.1.026.026.077.051.1.1a1.132,1.132,0,0,1,.2.281,1.024,1.024,0,0,1,.077.383Z" transform="translate(101.821 46.757)" fill="#f7cd37"/>
    </g>
  </g>
</svg>
