<svg xmlns="http://www.w3.org/2000/svg" width="73.764" height="46.344" viewBox="0 0 73.764 46.344">
  <g id="Group_9259" data-name="Group 9259" transform="translate(-2114.155 -521)">
    <g id="Group_9255" data-name="Group 9255" transform="translate(2114.299 521)">
      <path id="Path_9536" data-name="Path 9536" d="M160.07,2.511h16.22l.007.01,18.289-16.029L212.863,2.5v.007h.007l.009.009.006-.009H229.1V17.43H231.4V.217H214.324l-19.857-17.73,0,.006-.013-.014L174.851.211l0,.005h-17.08V17.43h2.295Z" transform="translate(-157.775 17.522)" fill="#f7cd37"/>
    </g>
    <g id="Group_9258" data-name="Group 9258" transform="translate(2114.155 546.706)">
      <path id="Path_9660" data-name="Path 9660" d="M-79.311-25.84h-3.536a1.108,1.108,0,0,0-1.142,1.211,1.108,1.108,0,0,0-1.142-1.211h-4.416v9.356h1.761v-7.595h2.408a.508.508,0,0,1,.509.509v7.086h1.761v-7.595H-80.7a.508.508,0,0,1,.509.509v7.086h1.761v-8.475A.887.887,0,0,0-79.311-25.84Zm7.677,0h-5.558v9.356h1.761v-3.508h2.917v3.508h1.761v-8.475A.887.887,0,0,0-71.634-25.84Zm-.881,4.1h-2.917v-2.339h2.408a.508.508,0,0,1,.509.509Zm8.709-4.1h-5.847v1.761h2.036v7.595h1.761v-7.595h2.05Zm7.54,2.628v-1.747a.887.887,0,0,0-.881-.881H-62.7v8.475a.878.878,0,0,0,.881.881h5.558v-2.628h-1.761v.881h-2.408a.523.523,0,0,1-.523-.523v-1.527h2.642v-1.761h-2.642v-2.036h2.408a.511.511,0,0,1,.523.509v.358Zm6.92,2.339a1.228,1.228,0,0,0-.867-.289A1.105,1.105,0,0,0-49-22.235v-2.738h0V-25a.051.051,0,0,0-.014-.041v-.014h0v-.069a.048.048,0,0,1-.014-.028v-.014h0v-.028h-.014c0-.028,0-.041-.014-.055h0v-.014c0-.014-.014-.028-.014-.041h0a.013.013,0,0,0-.014-.014h0c0-.014,0-.028-.014-.028s-.014-.028-.014-.041l-.014-.014v-.014h-.014v-.028h-.014v-.014a.013.013,0,0,1-.014-.014v-.014h-.014V-25.5c-.014,0-.014-.014-.028-.028l-.014-.014h0l-.014-.014a.013.013,0,0,0-.014-.014l-.014-.014v-.014h-.014a.013.013,0,0,0-.014-.014.013.013,0,0,0-.014-.014.013.013,0,0,0-.014-.014l-.014-.014c-.014,0-.014,0-.014-.014s-.014,0-.028-.014l-.014-.014c-.014,0-.014-.014-.028-.014l-.014-.014c-.014,0-.028-.014-.041-.014a.013.013,0,0,0-.014-.014h0a.043.043,0,0,0-.028-.014c-.014,0-.014,0-.028-.014h-.014a.051.051,0,0,0-.041-.014.013.013,0,0,0-.014-.014h-.028c-.014-.014-.014-.014-.028-.014h-.028c0-.014-.014-.014-.028-.014h-.041c-.014,0-.028-.014-.041-.014H-55.44v9.356h1.8v-3.8h1.995a.893.893,0,0,1,.66.289.871.871,0,0,1,.22.592v2.917H-49v-3.55A1.244,1.244,0,0,0-49.345-20.873Zm-1.417-2.036a.861.861,0,0,1-.22.578.893.893,0,0,1-.66.289h-1.995v-2.036h2.366a.508.508,0,0,1,.509.509Zm4.623,6.425H-47.9V-25.84h1.761Zm6.8-9.356H-44.9v9.356h1.761v-3.508h2.917v3.508h1.761v-8.475A.887.887,0,0,0-39.343-25.84Zm-.881,4.1H-43.14v-2.339h2.408a.508.508,0,0,1,.509.509Zm8.269,4.361v-.853h-3.508V-25.84h-1.761v9.356h5.269v-.894Zm7.251-7.595V-25.1h0v-.028h-.014v-.055h0v-.028a.013.013,0,0,1-.014-.014v-.028h0a.1.1,0,0,1-.014-.055.994.994,0,0,0-.193-.358l-.014-.014h0l-.028-.028h0c-.014-.014-.028-.014-.041-.028l-.041-.041h0c-.014,0-.028-.014-.041-.014h0V-25.8a.051.051,0,0,1-.041-.014h-.028a.083.083,0,0,0-.055-.014.013.013,0,0,0-.014-.014.013.013,0,0,1,.014.014.013.013,0,0,0-.014-.014h-5.889v.5h0v4.32h0l.014.014V-21h0v.028c0,.014,0,.014.014.028h0v.041a.013.013,0,0,1,.014.014h0v.014a.9.9,0,0,0,.3.413h.014v.014a.051.051,0,0,0,.041.014v.014h0c.014.014.041.014.055.028a.105.105,0,0,0,.069.028v.014h0c.014,0,.041.014.055.014h.014a.051.051,0,0,0,.041.014l.014.014h.041a.1.1,0,0,0,.069.014h.028a.083.083,0,0,0,.055.014h3.839v.33h0v1.72h-2.93v-.881h-1.747v1.885h0v.028h0a.051.051,0,0,1,.014.041v.014h0v.028a.013.013,0,0,0,.014.014v.041a.92.92,0,0,0,.206.4v.014h.014l.028.028h0l.028.028a.19.19,0,0,1,.055.041h0c.014,0,.028.014.041.014h0v.014a.051.051,0,0,1,.041.014h.014c.014,0,.014,0,.014.014h.055c0,.014,0,.014.014.014H-24.7V-21.3h0l-.041-.151a1.009,1.009,0,0,0-.3-.413h-.014a.013.013,0,0,0-.014-.014.048.048,0,0,0-.028-.014v-.014h0a.1.1,0,0,1-.055-.028c-.028-.014-.041-.028-.069-.028v-.014h0c-.028,0-.041-.014-.055-.014H-25.3A.051.051,0,0,0-25.337-22a.013.013,0,0,1-.014-.014h-.041a.1.1,0,0,0-.069-.014h-.028a.083.083,0,0,0-.055-.014h-3.839v-2.036h2.93v.867H-24.7v-1.761Z" transform="translate(93.991 25.84)" fill="#f7cd37"/>
      <path id="Path_9659" data-name="Path 9659" d="M-96.263-25.84h-5.558v8.475a.887.887,0,0,0,.881.881h5.558v-8.475A.887.887,0,0,0-96.263-25.84Zm-.881,7.608h-2.408a.511.511,0,0,1-.509-.523v-5.324h2.408a.508.508,0,0,1,.509.509Zm9.163-7.608h-5.545v9.356h1.747v-7.595h2.408a.511.511,0,0,1,.523.509v7.086H-87.1v-8.475A.878.878,0,0,0-87.98-25.84Zm14.171,3.508h0v-2.779a.013.013,0,0,1-.014-.014v-.041a.013.013,0,0,0-.014-.014v-.028c0-.014-.014-.014-.014-.028v-.028h0c-.014-.014-.014-.028-.028-.041v-.014h0v-.014a.013.013,0,0,1-.014-.014.013.013,0,0,0-.014-.014.071.071,0,0,0-.028-.055h0a.3.3,0,0,0-.041-.069V-25.5c-.014-.014-.028-.028-.041-.028s0-.014-.014-.014-.014-.028-.028-.041h0l-.014-.014-.028-.028a.013.013,0,0,1-.014-.014c-.014,0-.014-.014-.028-.014a.013.013,0,0,0-.014-.014c-.014-.014-.028-.014-.041-.028l-.014-.014a.048.048,0,0,0-.028-.014l-.014-.014h-.014l-.014-.014h-.014l-.014-.014h-.014l-.014-.014h-.014a.013.013,0,0,1-.014-.014h-.028L-74.4-25.8h-.028c-.014,0-.014-.014-.028-.014h0c-.028,0-.055-.014-.083-.014h-.014c-.014,0-.028,0-.028-.014h-5.655v9.356h5.655a.048.048,0,0,1,.028-.014h.014a.175.175,0,0,0,.083-.014h0c.014,0,.014-.014.028-.014h.028l.014-.014h.028a.013.013,0,0,1,.014-.014h.014a.013.013,0,0,0,.014-.014h.028c0-.014,0-.014.014-.014h.014c0-.014,0-.014.014-.014h0l.014-.014a.048.048,0,0,0,.028-.014.013.013,0,0,0,.014-.014c.014,0,.028-.014.041-.028a.013.013,0,0,0,.014-.014c.014,0,.014-.014.028-.014A.013.013,0,0,1-74.1-16.7l.028-.028.014-.014h0c.014-.014.028-.028.028-.041h.014l.041-.041v-.014a.3.3,0,0,0,.041-.069h0a.071.071,0,0,0,.028-.055c.014,0,.014,0,.014-.014a.013.013,0,0,1,.014-.014v-.014h0v-.014c.014-.014.014-.028.028-.041h0v-.028c0-.014.014-.014.014-.028v-.014c0-.014.014-.014.014-.028V-17.2a.013.013,0,0,1,.014-.014v-5.118Zm-1.747,3.577a.552.552,0,0,1-.041.206,1.148,1.148,0,0,1-.11.165c-.014.014-.041.028-.055.041a.288.288,0,0,1-.083.055h0c-.028,0-.041.014-.055.014h0a.048.048,0,0,1-.028.014.5.5,0,0,1-.151.028h-2.408v-5.847h2.408a.516.516,0,0,1,.151.014.048.048,0,0,1,.028.014h0c.014,0,.028.014.055.014h0c.028.014.055.041.083.055s.041.028.055.055a.611.611,0,0,1,.11.151.552.552,0,0,1,.041.206Zm10.044-4.458v-1.747a.887.887,0,0,0-.881-.881h-5.558v8.475a.878.878,0,0,0,.881.881h5.558v-2.628h-1.761v.881h-2.408a.523.523,0,0,1-.523-.523v-1.527h2.642v-1.761H-70.2v-2.036H-67.8a.511.511,0,0,1,.523.509v.358Zm11.681-2.628h-3.536a1.108,1.108,0,0,0-1.142,1.211,1.108,1.108,0,0,0-1.142-1.211h-4.416v9.356h1.761v-7.595H-59.9a.508.508,0,0,1,.509.509v7.086h1.761v-7.595h2.408a.508.508,0,0,1,.509.509v7.086h1.761v-8.475A.887.887,0,0,0-53.832-25.84Zm8.3,0h-5.558v9.356h1.761v-3.508h2.917v3.508h1.761v-8.475A.887.887,0,0,0-45.536-25.84Zm-.881,4.1h-2.917v-2.339h2.408a.508.508,0,0,1,.509.509Zm9.163-4.1H-42.8v9.356h1.747v-7.595h2.408a.511.511,0,0,1,.523.509v7.086h1.747v-8.475A.878.878,0,0,0-37.253-25.84Zm9.163,3.508h0v-2.779a.013.013,0,0,1-.014-.014v-.041a.013.013,0,0,0-.014-.014v-.028c0-.014-.014-.014-.014-.028v-.028h0c-.014-.014-.014-.028-.028-.041v-.014h0v-.014a.013.013,0,0,1-.014-.014.013.013,0,0,0-.014-.014.071.071,0,0,0-.028-.055h0a.3.3,0,0,0-.041-.069V-25.5c-.014-.014-.028-.028-.041-.028s0-.014-.014-.014-.014-.028-.028-.041h0l-.014-.014-.028-.028a.013.013,0,0,1-.014-.014c-.014,0-.014-.014-.028-.014a.013.013,0,0,0-.014-.014c-.014-.014-.028-.014-.041-.028l-.014-.014a.048.048,0,0,0-.028-.014l-.014-.014h-.014l-.014-.014h-.014l-.014-.014H-28.6l-.014-.014h-.014a.013.013,0,0,1-.014-.014h-.028l-.014-.014h-.028c-.014,0-.014-.014-.028-.014h0c-.028,0-.055-.014-.083-.014h-.014c-.014,0-.028,0-.028-.014h-5.655v9.356h5.655a.048.048,0,0,1,.028-.014h.014a.175.175,0,0,0,.083-.014h0c.014,0,.014-.014.028-.014h.028l.014-.014h.028a.013.013,0,0,1,.014-.014h.014a.013.013,0,0,0,.014-.014h.028c0-.014,0-.014.014-.014h.014c0-.014,0-.014.014-.014h0l.014-.014a.048.048,0,0,0,.028-.014.013.013,0,0,0,.014-.014c.014,0,.028-.014.041-.028a.013.013,0,0,0,.014-.014c.014,0,.014-.014.028-.014a.013.013,0,0,1,.014-.014l.028-.028.014-.014h0c.014-.014.028-.028.028-.041h.014l.041-.041v-.014a.3.3,0,0,0,.041-.069h0a.071.071,0,0,0,.028-.055c.014,0,.014,0,.014-.014a.013.013,0,0,1,.014-.014v-.014h0v-.014c.014-.014.014-.028.028-.041h0v-.028c0-.014.014-.014.014-.028v-.014c0-.014.014-.014.014-.028V-17.2a.013.013,0,0,1,.014-.014v-5.118Zm-1.747,3.577a.552.552,0,0,1-.041.206,1.147,1.147,0,0,1-.11.165c-.014.014-.041.028-.055.041a.288.288,0,0,1-.083.055h0c-.028,0-.041.014-.055.014h0a.048.048,0,0,1-.028.014.5.5,0,0,1-.151.028h-2.408v-5.847h2.408a.516.516,0,0,1,.151.014.048.048,0,0,1,.028.014h0c.014,0,.028.014.055.014h0c.028.014.055.041.083.055s.041.028.055.055a.61.61,0,0,1,.11.151.552.552,0,0,1,.041.206Z" transform="translate(101.821 37.122)" fill="#f7cd37"/>
    </g>
  </g>
</svg>
